<?xml version="1.0" standalone="no"?>
<!DOCTYPE svg PUBLIC "-//W3C//DTD SVG 20010904//EN"
 "http://www.w3.org/TR/2001/REC-SVG-20010904/DTD/svg10.dtd">
<svg version="1.0" xmlns="http://www.w3.org/2000/svg"
 width="1024.000000pt" height="1024.000000pt" viewBox="0 0 1024.000000 1024.000000"
 preserveAspectRatio="xMidYMid meet">
<metadata>
Created by potrace 1.14, written by Peter Selinger 2001-2017
</metadata>
<g transform="translate(0.000000,1024.000000) scale(0.100000,-0.100000)"
fill="#000000" stroke="none">
<path d="M6458 9692 c-10 -2 -18 -8 -18 -13 0 -6 -4 -8 -9 -5 -5 3 -12 -5 -15
-19 -8 -31 -46 -73 -46 -50 0 9 -6 12 -15 9 -8 -4 -15 -2 -15 3 0 5 -7 10 -15
10 -8 0 -15 -3 -15 -7 0 -3 -10 -6 -22 -7 -11 -1 -25 -8 -29 -15 -5 -7 -9 -8
-10 -3 -2 27 -16 -35 -15 -66 2 -26 -4 -39 -20 -52 -13 -10 -25 -13 -29 -7 -7
11 -44 -21 -38 -32 2 -5 -3 -8 -11 -8 -9 0 -17 -6 -18 -12 -6 -55 -4 -74 10
-85 9 -7 12 -13 6 -13 -5 0 -3 -4 4 -9 11 -6 10 -11 -3 -25 -9 -9 -13 -16 -9
-16 3 0 2 -6 -3 -12 -26 -36 24 -153 56 -133 7 3 10 1 9 -6 -2 -7 4 -14 12
-15 36 -3 40 -5 40 -15 0 -5 -5 -7 -10 -4 -6 3 -14 -4 -19 -17 -6 -13 -10 -19
-10 -14 -1 5 -10 -1 -21 -14 -11 -13 -20 -21 -20 -18 0 3 -27 -21 -60 -53 -34
-33 -65 -59 -70 -59 -5 0 -14 -9 -20 -20 -6 -11 -15 -18 -21 -15 -5 4 -9 -3
-9 -15 0 -12 -4 -19 -9 -15 -6 3 -14 -3 -20 -12 -6 -10 -11 -15 -11 -11 0 4
-17 -10 -39 -32 -21 -21 -41 -37 -44 -34 -3 3 -8 -4 -12 -15 -3 -12 -10 -19
-15 -16 -5 3 -16 -7 -24 -22 -8 -15 -15 -24 -16 -19 0 4 -16 -8 -36 -28 -20
-20 -40 -36 -45 -36 -5 0 -9 -8 -9 -17 0 -15 -2 -16 -10 -3 -8 13 -10 13 -10
-1 0 -9 -7 -20 -16 -23 -8 -3 -12 -11 -8 -17 4 -7 3 -9 -4 -5 -6 3 -15 -2 -21
-11 -6 -10 -11 -14 -11 -10 0 4 -13 -5 -28 -20 -51 -51 -83 -74 -93 -68 -5 4
-9 3 -8 -2 3 -20 -2 -34 -11 -28 -5 3 -10 -1 -10 -10 0 -9 -4 -14 -8 -11 -5 3
-18 -5 -30 -17 -11 -12 -32 -31 -46 -42 -13 -10 -22 -23 -20 -27 3 -4 -3 -5
-12 -1 -10 3 -15 2 -12 -3 4 -8 -25 -44 -37 -44 -3 0 -10 0 -17 0 -6 0 -9 -2
-6 -5 3 -3 -7 -18 -21 -34 -31 -33 -71 -49 -71 -29 0 8 -9 20 -20 28 -11 8
-20 18 -20 23 0 5 -13 25 -30 44 -16 18 -30 38 -30 44 0 6 -4 7 -10 4 -5 -3
-10 -1 -10 4 0 6 -7 11 -17 11 -9 0 -14 3 -10 6 8 8 -18 34 -33 34 -6 0 -8 5
-5 10 3 6 2 10 -2 10 -5 0 -21 11 -36 25 -15 14 -27 23 -27 19 0 -3 -13 8 -30
26 -16 18 -30 28 -30 24 -1 -5 -10 2 -20 15 -12 14 -20 18 -20 10 0 -10 -3
-10 -8 -3 -4 6 -17 16 -30 23 -12 7 -20 16 -18 20 3 5 -4 8 -17 7 -12 0 -21 4
-20 11 1 6 -8 10 -22 9 -13 -2 -23 2 -22 8 1 6 -4 10 -10 8 -7 -1 -13 3 -13 9
0 6 -7 9 -15 5 -8 -3 -15 -1 -15 5 0 6 -4 7 -10 4 -5 -3 -10 -1 -10 4 0 6 -9
11 -20 11 -11 0 -20 6 -20 13 0 8 -4 7 -10 -3 -8 -13 -10 -13 -10 2 0 10 -5
15 -13 12 -7 -2 -26 2 -42 10 -16 8 -32 13 -37 10 -4 -3 -8 -1 -8 5 0 6 -7 7
-17 4 -10 -4 -14 -2 -10 4 7 11 -22 11 -42 -2 -9 -5 -12 -4 -8 2 9 14 -18 24
-40 16 -10 -4 -14 -2 -10 5 5 7 -7 10 -38 8 -26 -1 -49 2 -52 7 -3 5 -9 3 -14
-4 -5 -9 -9 -9 -9 -3 0 12 -49 12 -68 0 -6 -3 -13 -2 -17 3 -4 7 -15 6 -30 -1
-25 -11 -34 -28 -16 -28 6 0 8 -9 6 -20 -2 -13 2 -20 11 -20 8 0 12 -4 9 -10
-3 -5 -1 -10 5 -10 6 0 9 -4 6 -9 -4 -5 -2 -11 3 -13 5 -1 11 -14 13 -28 1
-14 6 -27 10 -30 7 -5 21 -90 20 -115 -2 -40 -15 -91 -25 -104 -10 -12 -9 -13
2 -6 8 5 4 -7 -9 -25 -13 -18 -18 -30 -10 -25 8 5 4 -5 -8 -22 -12 -17 -22
-39 -22 -48 0 -11 -5 -15 -15 -11 -8 3 -14 2 -13 -2 3 -18 -23 -62 -37 -62 -9
0 -13 -4 -10 -10 3 -5 -1 -10 -10 -10 -11 0 -15 -5 -11 -15 3 -8 2 -14 -2 -12
-7 2 -23 -9 -63 -45 -10 -10 -19 -15 -19 -10 0 4 -7 -2 -15 -12 -8 -11 -15
-16 -15 -11 0 4 -8 -1 -17 -11 -10 -11 -30 -25 -45 -33 -15 -8 -25 -18 -22
-23 3 -4 -2 -8 -10 -8 -9 0 -16 -5 -16 -12 0 -6 -3 -9 -6 -6 -7 7 -50 -34 -47
-44 2 -4 -4 -5 -12 -2 -10 4 -15 0 -15 -12 0 -9 -3 -15 -6 -12 -10 10 -56 -40
-48 -53 4 -7 3 -9 -4 -6 -5 4 -18 4 -27 1 -13 -5 -14 -8 -3 -15 9 -6 7 -9 -9
-9 -13 0 -22 -5 -20 -12 1 -7 -3 -12 -10 -11 -8 2 -10 -4 -6 -15 3 -9 3 -14
-1 -10 -12 10 -34 -15 -28 -32 3 -8 1 -12 -3 -8 -10 10 -66 -51 -59 -64 3 -4
-2 -11 -10 -14 -9 -3 -16 -12 -16 -20 0 -8 -4 -14 -10 -14 -5 0 -10 -9 -10
-19 0 -10 -7 -21 -15 -25 -8 -3 -15 -15 -15 -26 0 -11 -6 -20 -12 -20 -9 0 -8
-4 2 -10 8 -5 11 -10 5 -10 -5 0 -15 -11 -22 -25 -8 -19 -8 -23 0 -18 7 3 4
-3 -5 -14 -19 -21 -24 -38 -9 -28 5 3 3 -9 -6 -26 -9 -17 -17 -48 -18 -68 -1
-20 -3 -36 -5 -36 -1 0 -3 -10 -4 -22 -2 -13 1 -23 6 -23 5 0 6 -5 2 -12 -4
-7 -9 -25 -11 -41 -2 -20 0 -26 10 -21 8 5 8 2 -2 -9 -11 -14 -11 -17 0 -17
11 0 11 -2 -1 -10 -9 -6 -10 -10 -3 -10 6 0 10 -9 8 -20 -2 -11 0 -20 6 -20 5
0 9 -5 9 -11 0 -5 -4 -7 -10 -4 -6 3 -7 -1 -4 -9 3 -9 11 -16 16 -16 6 0 6 -6
-1 -14 -9 -11 -9 -15 1 -19 11 -4 10 -6 0 -6 -7 -1 -10 -6 -6 -13 4 -6 3 -8
-4 -4 -6 3 -17 0 -25 -8 -8 -8 -18 -12 -22 -8 -5 4 -5 -2 -1 -12 5 -16 4 -17
-9 -6 -12 10 -15 10 -15 0 0 -7 -7 -10 -16 -6 -8 3 -12 2 -9 -3 3 -5 1 -12 -5
-16 -5 -3 -10 0 -11 7 0 7 -5 2 -10 -12 -8 -20 -12 -22 -19 -10 -8 13 -10 12
-10 -2 0 -10 -6 -17 -12 -15 -7 1 -12 -3 -11 -10 2 -7 -4 -10 -12 -7 -9 4 -15
0 -15 -10 0 -9 -3 -15 -7 -15 -20 3 -34 -2 -29 -10 3 -5 -6 -12 -19 -15 -14
-4 -23 -11 -20 -16 3 -6 1 -10 -4 -10 -6 0 -11 -7 -11 -16 0 -8 -4 -13 -9 -9
-6 3 -15 -5 -22 -17 -16 -31 -45 -58 -53 -50 -4 3 -4 -2 0 -12 5 -13 4 -17 -3
-13 -6 4 -16 -7 -23 -23 -7 -18 -17 -27 -24 -23 -6 4 -5 0 2 -9 11 -14 10 -18
-7 -30 -12 -8 -18 -18 -15 -21 3 -3 -3 -19 -15 -35 -12 -17 -21 -42 -21 -57 0
-14 -4 -24 -8 -21 -4 3 -7 -8 -6 -25 1 -16 -3 -29 -9 -29 -7 0 -5 -5 3 -10 8
-5 10 -10 3 -10 -6 0 -10 -13 -9 -29 1 -17 -2 -27 -8 -24 -5 4 -7 -1 -3 -10 3
-10 2 -17 -4 -17 -6 0 -7 -4 -4 -10 3 -5 0 -7 -8 -4 -8 3 -18 0 -22 -5 -3 -6
-11 -9 -16 -5 -5 3 -16 0 -24 -6 -8 -6 -19 -9 -24 -6 -5 4 -13 1 -17 -5 -4 -8
-3 -9 4 -5 7 4 12 2 12 -5 0 -7 -8 -9 -21 -6 -12 3 -22 0 -26 -9 -3 -8 -9 -11
-14 -8 -5 3 -9 1 -9 -4 0 -6 -11 -13 -25 -16 -16 -4 -23 -11 -19 -18 5 -8 2
-9 -10 -5 -12 5 -19 0 -26 -16 -5 -12 -9 -16 -9 -9 -1 7 -6 10 -11 7 -6 -4 -7
-11 -4 -17 4 -6 2 -8 -4 -4 -6 3 -13 2 -17 -4 -4 -6 -11 -7 -17 -4 -6 4 -8 2
-5 -3 4 -6 -1 -17 -10 -24 -12 -10 -14 -10 -9 -1 4 6 3 12 -1 12 -5 0 -14 -10
-19 -22 -6 -13 -9 -16 -7 -8 2 8 -7 2 -20 -14 -14 -17 -29 -26 -35 -22 -7 4
-10 2 -6 -7 7 -18 -21 -41 -38 -31 -9 5 -8 2 2 -12 8 -10 11 -16 6 -12 -11 9
-50 -28 -42 -40 3 -5 -2 -9 -12 -8 -10 0 -16 -6 -16 -16 1 -10 -1 -17 -5 -16
-20 2 -31 -4 -31 -17 0 -9 -7 -18 -15 -21 -8 -4 -13 -10 -10 -14 3 -5 -1 -12
-8 -17 -7 -4 -17 -16 -20 -26 -4 -10 -11 -15 -17 -12 -5 3 -7 0 -4 -9 3 -8 -3
-23 -13 -34 -10 -10 -19 -25 -21 -33 -2 -8 -8 -15 -13 -17 -5 -2 -9 -10 -9
-17 0 -8 -7 -21 -16 -29 -9 -10 -11 -16 -4 -16 7 0 5 -7 -5 -16 -9 -9 -14 -22
-11 -29 3 -8 -2 -16 -10 -19 -9 -3 -12 -10 -9 -16 3 -5 2 -10 -4 -10 -5 0 -8
-11 -7 -25 2 -13 -1 -22 -5 -19 -5 3 -10 -4 -10 -15 -2 -33 -4 -39 -11 -46 -4
-4 -4 -13 -1 -21 3 -8 -1 -14 -8 -14 -10 0 -10 -3 -1 -12 6 -6 8 -18 3 -27 -5
-9 -7 -26 -6 -38 1 -13 -3 -23 -9 -23 -6 0 -4 -5 4 -10 8 -5 11 -10 5 -10 -14
0 -16 -190 -1 -190 6 0 4 -5 -4 -10 -10 -6 -11 -10 -2 -10 6 0 12 -5 12 -11 0
-5 -6 -7 -12 -3 -10 6 -10 4 -2 -7 6 -8 10 -22 9 -31 -2 -10 0 -18 4 -18 4 0
8 -6 9 -12 2 -23 7 -43 15 -55 5 -7 5 -13 1 -13 -4 0 1 -10 12 -22 10 -12 13
-18 5 -13 -9 5 -7 -1 4 -19 10 -14 15 -26 11 -26 -3 0 3 -9 14 -20 11 -11 20
-27 20 -35 0 -8 5 -15 10 -15 6 0 10 -7 10 -16 0 -8 5 -12 10 -9 6 3 10 0 10
-8 0 -20 39 -59 52 -51 7 4 8 2 4 -4 -4 -6 4 -17 18 -24 14 -7 26 -17 26 -23
1 -5 6 -9 11 -7 5 1 9 -2 9 -8 0 -5 -5 -10 -11 -10 -5 0 -7 -6 -3 -12 5 -9 2
-9 -9 1 -14 11 -17 11 -17 0 0 -11 -2 -11 -10 1 -9 13 -10 13 -10 0 0 -10 -3
-11 -8 -4 -8 13 -70 13 -91 0 -10 -7 -12 -5 -7 5 4 8 1 6 -7 -3 -8 -10 -16
-16 -18 -13 -3 2 -5 -14 -5 -35 0 -22 3 -40 8 -40 4 0 8 -9 8 -21 0 -13 4 -18
12 -13 7 4 8 3 4 -4 -4 -6 -14 -8 -22 -5 -9 3 -20 0 -25 -8 -7 -12 -9 -12 -9
0 0 11 -3 11 -15 1 -8 -6 -18 -9 -23 -6 -18 11 -19 -31 -1 -55 13 -17 15 -27
7 -36 -7 -9 -7 -13 1 -13 6 0 11 -11 11 -25 0 -14 5 -25 11 -25 6 0 9 -7 6
-15 -4 -8 -2 -17 4 -20 5 -4 7 -11 4 -16 -4 -5 0 -9 7 -9 9 0 9 -3 -2 -10 -8
-5 -10 -10 -4 -10 11 0 29 -46 26 -62 -1 -5 3 -8 9 -8 5 0 7 -5 3 -11 -3 -6 0
-15 7 -20 12 -7 11 -9 -1 -9 -12 0 -12 -2 -2 -9 7 -4 14 -18 15 -29 1 -12 5
-22 10 -22 4 0 5 -4 2 -10 -3 -5 -2 -10 3 -10 5 0 8 -10 7 -23 -1 -12 3 -29
11 -37 7 -8 13 -18 13 -22 1 -5 1 -9 2 -10 4 -13 10 -45 11 -55 1 -7 4 -13 7
-13 4 0 8 -12 9 -27 1 -15 6 -29 11 -32 4 -3 7 -14 5 -23 -1 -10 2 -18 6 -18
5 0 7 -9 5 -20 -2 -11 1 -20 7 -20 6 0 8 -9 5 -20 -3 -11 -1 -20 5 -20 5 0 6
-4 3 -10 -3 -5 -1 -10 5 -10 7 0 9 -7 6 -17 -4 -9 -1 -20 5 -24 7 -4 14 -22
16 -40 2 -18 9 -37 16 -41 6 -4 8 -8 3 -8 -5 0 -2 -8 5 -17 12 -15 12 -16 -1
-8 -10 5 -8 1 4 -13 10 -12 16 -28 13 -37 -4 -8 -2 -15 4 -15 6 0 7 -4 4 -10
-3 -5 -1 -10 5 -10 6 0 8 -5 5 -10 -4 -6 -2 -16 3 -23 5 -7 8 -20 7 -29 -2
-10 0 -18 5 -18 7 0 23 -56 17 -63 -1 -2 6 -16 17 -31 10 -16 13 -26 7 -22 -5
4 -4 -6 4 -20 8 -15 12 -31 9 -36 -3 -4 0 -8 6 -8 6 0 8 -5 5 -10 -3 -6 0 -10
7 -10 9 0 9 -3 -2 -10 -11 -7 -11 -10 -2 -10 7 0 10 -5 7 -10 -3 -5 -1 -10 6
-10 6 0 9 -8 6 -20 -3 -11 -1 -20 3 -20 5 0 11 -18 15 -40 4 -26 11 -38 18
-34 9 5 9 4 1 -5 -9 -9 -9 -19 0 -37 6 -13 14 -24 18 -24 4 0 5 -9 3 -20 -2
-11 1 -20 7 -20 6 0 8 -3 5 -7 -4 -3 -1 -13 6 -21 10 -13 9 -14 -3 -7 -9 5 -7
-1 5 -15 12 -14 14 -20 5 -15 -13 8 -13 6 -1 -8 7 -9 11 -24 7 -32 -3 -9 -2
-13 4 -10 6 3 10 -5 10 -19 0 -14 5 -26 11 -26 6 0 9 -6 6 -12 -2 -7 2 -28 9
-47 8 -18 14 -44 14 -57 0 -13 5 -24 11 -24 6 0 9 -9 6 -20 -3 -11 -1 -20 5
-20 5 0 8 -6 5 -12 -2 -7 5 -28 15 -46 11 -20 13 -30 6 -26 -10 6 -11 5 -1 -8
7 -8 14 -27 15 -42 1 -14 6 -26 10 -26 4 0 8 -11 8 -25 0 -14 6 -25 13 -25 8
0 7 -3 -3 -10 -12 -8 -12 -10 2 -15 10 -4 15 -15 13 -26 -2 -10 0 -21 5 -24 5
-3 7 -12 4 -20 -4 -9 1 -18 11 -21 13 -5 14 -9 3 -15 -7 -5 -8 -9 -2 -9 6 0
11 -6 12 -12 1 -17 7 -39 16 -60 4 -9 5 -21 2 -27 -3 -5 -1 -15 6 -23 7 -7 15
-24 17 -38 1 -14 6 -27 10 -30 4 -3 6 -12 6 -20 -1 -8 5 -26 13 -39 9 -14 10
-21 2 -16 -7 4 -6 -4 4 -23 8 -16 12 -32 9 -36 -4 -3 -1 -6 5 -6 6 0 10 -8 10
-17 -2 -22 21 -93 35 -110 6 -9 5 -13 -4 -13 -10 0 -10 -3 -1 -12 7 -7 12 -20
12 -30 0 -10 4 -18 8 -18 7 0 12 -24 15 -67 0 -7 4 -13 8 -13 3 0 10 -20 13
-44 4 -26 13 -47 23 -50 12 -5 13 -9 3 -21 -10 -12 -10 -15 0 -15 6 0 10 -5 8
-12 -3 -7 7 -23 21 -36 14 -13 25 -26 24 -28 -2 -2 -3 -12 -2 -21 0 -11 3 -13
6 -5 6 16 24 16 21 -1 -2 -6 3 -11 10 -9 6 1 12 -2 12 -8 0 -5 7 -10 15 -10 8
0 15 -6 15 -12 0 -10 3 -9 9 1 7 11 10 9 15 -7 4 -12 13 -19 20 -16 7 3 16 -2
19 -10 4 -9 13 -16 22 -16 8 0 15 -6 15 -12 0 -9 4 -8 10 2 7 11 10 11 10 2 0
-7 4 -10 10 -7 5 3 10 1 10 -5 0 -6 5 -8 10 -5 6 3 10 1 10 -4 0 -6 7 -11 16
-11 9 0 12 -5 8 -12 -6 -10 -4 -10 7 -1 16 15 33 17 24 3 -5 -9 23 -15 48 -11
4 0 7 -4 7 -10 0 -6 7 -8 16 -5 8 3 12 2 9 -4 -6 -9 -1 -11 33 -14 7 -1 16 -6
20 -12 9 -14 45 -27 37 -14 -3 6 -2 10 3 10 6 0 13 -7 16 -15 5 -13 10 -14 27
-4 15 8 19 8 15 0 -5 -7 3 -11 19 -11 18 0 24 -4 19 -13 -4 -6 -4 -9 0 -5 5 4
19 3 33 -3 18 -7 22 -6 17 4 -6 9 -5 9 8 0 8 -7 18 -10 21 -6 4 3 7 1 7 -6 0
-9 5 -9 21 0 16 8 24 8 33 -1 8 -8 6 -9 -9 -4 -11 4 -17 4 -13 0 11 -13 43
-14 50 -2 5 7 8 5 8 -6 0 -17 15 -19 38 -5 16 10 16 -5 -1 -22 -10 -11 -8 -11
10 0 16 10 25 10 35 1 11 -9 17 -9 26 0 9 9 12 9 12 0 0 -10 5 -10 23 -1 20
11 21 11 8 -5 -8 -9 -11 -19 -7 -23 3 -3 6 -2 6 4 0 13 49 23 56 11 3 -4 10
-6 15 -3 5 4 9 1 9 -4 0 -6 5 -11 11 -11 5 0 7 5 4 11 -4 6 2 5 13 -2 12 -7
18 -18 16 -24 -3 -5 2 -1 10 9 9 11 16 15 16 9 0 -6 9 -9 20 -6 12 3 20 0 20
-7 0 -10 3 -10 14 -1 17 14 31 -2 20 -21 -5 -9 -3 -9 9 1 9 7 14 18 10 25 -3
6 3 3 14 -7 23 -20 38 -23 26 -5 -4 7 5 5 20 -5 19 -12 27 -14 27 -5 0 8 3 9
8 3 7 -10 22 -13 79 -16 18 -1 30 -5 28 -8 -2 -4 5 -7 15 -7 10 0 16 4 14 8
-3 4 0 8 5 8 6 0 11 -5 11 -10 0 -6 6 -10 13 -9 34 4 58 -2 52 -14 -4 -6 0 -4
8 5 13 17 15 16 26 -5 6 -12 9 -14 7 -4 -3 9 -1 17 4 17 6 0 10 -4 10 -10 0
-5 5 -10 11 -10 5 0 7 5 3 11 -3 6 6 3 21 -7 l28 -18 -13 24 c-13 24 -12 25 7
7 23 -20 37 -23 27 -4 -4 6 3 3 16 -8 l23 -20 -6 20 c-7 20 -7 20 8 1 8 -11
15 -14 15 -7 0 7 4 10 10 6 5 -3 25 -6 44 -7 22 -1 33 -5 29 -12 -5 -8 -2 -8
8 0 18 14 49 14 49 0 0 -5 7 -1 16 10 8 10 12 13 9 6 -6 -11 1 -13 29 -9 20 3
36 1 36 -4 0 -11 23 -7 33 6 4 6 10 5 16 -4 6 -9 11 -10 15 -2 4 6 13 11 19
11 7 0 6 -4 -3 -10 -20 -13 -4 -13 21 0 14 8 19 7 19 -1 0 -8 4 -8 15 1 12 10
15 10 15 0 0 -10 3 -10 15 0 12 10 15 10 15 0 0 -10 3 -10 15 0 12 10 15 10
15 -1 0 -11 2 -11 10 1 9 14 15 7 11 -14 -1 -5 5 -4 13 3 8 7 27 14 41 16 20
2 25 -1 20 -13 -5 -13 -2 -12 14 2 16 14 23 15 41 6 18 -9 25 -8 41 6 17 15
19 15 14 2 -4 -9 -1 -19 6 -24 8 -4 10 -3 5 4 -6 11 6 16 27 13 4 0 7 4 7 11
0 6 6 4 13 -7 11 -14 16 -15 22 -5 6 10 9 9 16 -1 7 -11 9 -11 9 -1 0 9 7 11
21 7 16 -6 20 -4 14 6 -6 11 -5 12 6 1 15 -14 33 -17 25 -4 -3 5 5 7 17 6 12
-1 22 -3 22 -4 0 -1 10 -3 23 -4 12 -2 22 1 22 5 0 5 7 6 15 3 8 -4 15 -1 15
6 0 6 5 8 10 5 6 -4 7 -12 3 -18 -4 -7 0 -6 10 2 9 7 17 10 17 5 0 -5 5 -2 10
6 7 11 10 11 10 2 0 -8 5 -10 13 -5 16 10 38 13 33 4 -6 -9 25 -8 41 2 6 4 14
1 16 -5 4 -10 6 -10 6 -1 1 7 8 10 18 6 10 -4 14 -2 9 5 -4 7 2 8 23 2 16 -4
32 -5 36 -2 4 4 25 7 48 7 23 0 48 4 55 8 7 5 21 5 32 2 13 -4 20 -2 20 7 0
10 3 9 10 -2 7 -11 10 -11 10 -2 0 7 5 10 10 7 6 -3 10 0 10 7 0 8 3 9 8 3 11
-15 32 -17 32 -3 0 6 6 4 13 -7 11 -14 16 -15 22 -5 6 9 4 11 -6 5 -8 -5 -10
-4 -6 0 12 14 38 15 30 2 -5 -8 -2 -8 9 0 8 7 18 10 21 6 4 -3 7 -1 7 6 0 9 5
9 21 0 13 -7 19 -7 15 -1 -4 7 11 10 43 8 27 -1 48 1 46 4 -2 3 5 12 17 19 12
8 17 8 13 1 -8 -13 43 -3 63 13 7 6 12 6 11 1 -4 -24 3 -26 16 -4 8 14 14 19
15 11 0 -11 3 -11 17 0 15 12 16 12 8 -1 -8 -13 -7 -13 8 -1 14 11 17 11 18 0
0 -8 4 -5 9 6 5 11 9 14 9 8 1 -7 6 -13 12 -13 5 0 7 5 3 12 -5 8 -2 9 9 5 10
-4 17 -2 17 5 0 6 6 5 17 -3 11 -9 14 -10 9 -2 -5 9 1 12 23 9 17 -2 32 2 34
8 2 6 13 12 25 12 50 3 53 4 46 17 -5 7 0 6 11 -3 11 -9 16 -10 11 -2 -5 8 0
12 13 12 12 0 24 -1 27 -2 3 -2 10 5 16 15 7 14 13 16 24 6 10 -8 14 -8 14 -1
0 7 7 9 17 5 12 -5 14 -3 8 8 -7 11 -5 11 10 -1 10 -8 16 -10 13 -5 -4 6 2 17
14 24 16 10 19 10 12 -1 -6 -10 -5 -11 8 -1 8 7 18 10 21 6 4 -3 7 -1 7 6 0 8
7 11 15 7 8 -3 19 2 24 12 5 9 12 16 15 15 15 -7 26 -2 20 9 -4 7 -3 8 5 4 15
-10 53 3 45 15 -3 6 2 9 12 7 11 -2 18 2 17 9 -2 7 4 10 12 7 8 -4 17 1 21 10
3 9 10 14 14 11 11 -7 51 31 42 39 -4 4 -2 7 3 5 21 -5 43 13 40 32 -2 11 -1
17 4 15 7 -5 37 63 33 77 -1 4 2 7 8 7 5 0 10 11 10 24 0 14 5 28 10 31 6 4 8
11 5 16 -4 5 -1 9 6 9 7 0 9 3 6 7 -4 3 -1 13 6 21 10 13 9 14 -3 7 -12 -7
-13 -6 -4 6 6 8 10 22 9 32 -2 10 1 14 8 10 6 -4 8 0 4 10 -3 10 -2 17 3 17 5
0 7 7 4 15 -4 8 -1 15 6 15 6 0 9 4 5 9 -3 5 -1 12 4 16 6 3 8 12 4 20 -3 8 0
15 5 15 6 0 9 9 7 20 -2 12 2 23 9 26 8 3 12 14 9 25 -3 10 -1 19 4 19 5 0 9
14 8 30 -1 17 2 30 6 30 4 0 6 8 5 18 -2 9 1 20 6 23 5 3 11 19 14 35 3 16 9
30 15 32 5 2 9 8 9 13 0 6 -6 7 -12 3 -9 -6 -9 -3 0 9 8 9 11 21 7 27 -3 5 -2
10 3 10 9 0 18 21 27 60 6 27 13 55 15 60 1 3 2 8 1 13 0 4 3 7 8 7 5 0 7 10
3 22 -3 14 -1 19 6 14 8 -5 10 -2 6 8 -3 9 -2 16 4 16 5 0 8 11 7 25 -2 14 1
25 7 25 6 0 8 9 5 20 -3 11 -2 20 3 20 8 0 24 57 21 74 -1 4 4 14 10 22 6 8 9
14 5 14 -3 0 1 16 9 36 8 20 15 45 15 55 0 9 7 25 16 33 12 12 12 16 2 16 -8
0 -9 3 -3 8 10 7 13 15 22 62 2 13 10 31 16 39 9 11 9 15 0 18 -10 4 -9 8 2
20 8 8 15 23 15 34 0 10 4 19 9 19 6 0 8 9 6 20 -2 11 1 20 7 20 5 0 8 7 4 15
-3 8 -1 15 4 15 6 0 9 3 9 8 -4 21 2 32 14 26 9 -6 9 -5 0 7 -10 12 -9 20 2
36 12 17 12 22 2 26 -9 4 -9 6 1 6 7 1 10 6 7 11 -3 6 -1 10 4 10 6 0 10 3 9
8 -1 4 4 24 11 44 7 21 9 43 5 49 -4 8 -3 9 4 5 8 -5 12 1 12 17 0 13 3 27 7
31 7 6 13 29 15 54 1 6 6 12 11 12 5 0 7 7 3 15 -3 8 -2 15 3 15 4 0 8 7 9 15
1 8 3 22 4 30 1 8 5 15 9 15 4 0 6 9 4 20 -2 11 3 27 11 35 12 11 12 15 2 15
-10 1 -9 4 2 13 8 7 16 21 18 32 2 19 8 44 12 55 1 3 2 9 1 14 -1 4 3 14 10
22 6 7 8 18 4 24 -3 5 1 10 11 10 13 0 14 3 5 14 -9 10 -9 15 0 18 6 2 12 16
12 31 1 15 6 27 11 27 4 0 6 7 2 15 -3 8 -1 15 4 15 6 0 10 12 10 26 0 17 4
23 13 18 9 -6 9 -4 -1 8 -11 14 -10 18 3 26 20 11 21 22 3 33 -10 7 -9 9 5 9
10 0 15 5 12 10 -3 6 -1 10 5 10 6 0 9 4 6 9 -4 5 0 12 6 14 9 4 10 6 1 6 -9
1 -8 8 2 28 8 15 12 30 9 35 -3 4 -1 8 5 8 6 0 8 7 5 15 -4 8 -1 15 6 15 6 0
8 5 5 10 -4 6 -1 17 5 25 10 12 10 15 -1 15 -12 0 -12 2 0 9 8 5 10 14 6 21
-5 8 -4 11 3 6 12 -7 26 29 17 44 -3 5 -2 10 4 10 6 0 13 16 17 35 3 19 11 35
18 35 6 0 4 5 -4 10 -12 7 -12 10 -1 10 7 0 11 6 7 15 -3 8 0 15 6 15 6 0 9 3
5 6 -3 4 0 22 8 41 8 19 12 39 9 44 -3 5 0 9 5 9 6 0 11 12 11 26 0 14 4 23 9
19 6 -3 8 4 6 15 -2 11 0 20 4 20 6 0 8 43 2 73 0 4 -14 7 -31 7 -29 0 -32 5
-30 45 1 3 -6 13 -15 22 -9 8 -14 22 -11 30 3 8 2 11 -3 8 -5 -3 -12 4 -16 15
-4 11 -10 18 -14 16 -4 -3 -21 -2 -37 3 -16 4 -45 4 -65 1 -26 -5 -36 -3 -36
6 0 7 3 11 7 9 4 -2 13 7 20 20 7 13 17 22 22 19 4 -3 8 -1 8 4 0 5 11 21 25
36 13 14 21 26 18 26 -3 0 5 10 19 23 13 12 23 28 20 35 -2 7 1 11 6 10 6 -2
11 2 11 7 1 6 9 20 17 32 8 13 12 23 9 23 -4 0 1 7 9 16 19 18 21 38 4 29 -7
-4 -6 -1 3 7 9 7 14 19 12 26 -3 6 0 12 6 12 6 0 11 5 11 11 0 5 -6 7 -12 3
-7 -4 -6 1 3 12 9 10 17 26 17 34 1 8 3 35 5 60 1 25 6 51 10 58 5 7 3 12 -4
12 -9 0 -9 3 0 14 8 9 8 16 2 20 -7 5 -7 15 -1 31 7 18 6 25 -3 25 -8 0 -7 4
3 10 8 5 10 10 4 10 -5 0 -11 19 -13 42 -1 23 -6 47 -11 53 -6 7 -5 16 2 23 9
9 9 12 1 12 -7 0 -12 8 -12 18 -1 26 -7 54 -20 85 -6 16 -11 32 -11 37 0 5 -7
16 -16 24 -12 12 -12 16 -2 16 8 0 9 3 3 8 -15 10 -35 49 -35 67 0 8 -3 15 -8
15 -7 0 -34 55 -32 65 1 4 -9 15 -21 26 -12 10 -18 19 -13 19 5 1 -1 9 -14 20
-13 10 -23 23 -24 27 -1 15 -17 53 -22 53 -3 0 -3 -8 0 -17 2 -10 -1 -7 -8 7
-7 14 -18 29 -25 33 -7 4 -13 15 -13 23 0 8 -4 12 -10 9 -5 -3 -10 1 -10 10 0
8 -7 18 -15 21 -8 4 -12 10 -9 15 3 5 0 9 -6 9 -15 0 -75 62 -72 73 1 5 -2 6
-6 3 -13 -8 -54 29 -44 39 4 5 1 5 -6 1 -7 -4 -15 -1 -18 8 -3 9 -10 13 -15
10 -5 -3 -12 2 -15 10 -3 9 -13 16 -21 16 -7 0 -25 11 -39 25 -14 14 -29 23
-34 20 -5 -3 -11 4 -15 15 -3 11 -15 20 -26 20 -10 0 -19 5 -19 11 0 5 -4 8
-9 5 -4 -3 -19 3 -32 15 -12 11 -29 17 -36 15 -7 -3 -12 0 -10 7 1 7 -6 11
-17 9 -11 -2 -15 1 -11 7 3 7 -3 11 -15 11 -12 0 -19 4 -15 9 3 5 1 12 -5 16
-7 4 -6 13 1 27 6 11 7 18 2 15 -5 -3 -10 15 -10 41 -1 79 -2 84 -15 76 -8 -5
-8 -1 1 10 10 11 11 20 4 24 -5 4 -9 17 -8 30 1 13 -2 25 -7 28 -4 3 -6 10 -3
15 4 5 2 9 -2 9 -5 0 -10 12 -11 26 -1 15 -7 33 -13 40 -6 8 -8 14 -4 14 4 0
2 6 -4 13 -6 8 -8 17 -4 20 3 4 1 7 -6 7 -7 0 -9 5 -6 10 3 6 1 10 -5 10 -6 0
-8 5 -5 10 3 6 -2 10 -12 10 -15 0 -16 2 -3 10 11 7 11 10 2 10 -7 0 -10 5 -7
10 3 6 1 10 -4 10 -6 0 -11 7 -11 16 0 8 -4 13 -8 10 -4 -2 -9 5 -9 16 -1 11
-11 29 -22 40 -12 10 -21 26 -21 34 0 8 -4 12 -10 9 -5 -3 -10 -2 -10 3 0 6
-13 24 -30 42 -16 18 -27 37 -23 43 3 6 1 7 -5 3 -6 -4 -19 5 -28 19 -9 14
-23 25 -31 25 -8 0 -11 5 -8 10 3 6 -1 10 -9 10 -9 0 -16 4 -16 9 0 6 -13 18
-29 27 -17 10 -28 21 -25 26 3 4 -3 5 -12 1 -12 -4 -15 -3 -10 5 4 7 1 12 -8
12 -9 0 -16 5 -16 10 0 6 -7 10 -15 10 -8 0 -15 5 -15 11 0 5 -4 8 -9 5 -5 -3
-11 1 -14 8 -3 8 -16 20 -28 26 -17 10 -20 9 -14 -2 3 -7 -2 -3 -13 10 -14 15
-22 18 -25 10 -4 -10 -6 -10 -6 0 -1 6 -10 12 -21 12 -11 0 -20 4 -20 10 0 5
-7 7 -15 4 -8 -4 -15 -1 -15 6 0 6 -5 8 -11 4 -8 -5 -10 3 -7 25 3 18 0 31 -6
31 -6 0 -4 5 4 10 8 5 11 10 5 10 -6 0 -10 30 -10 70 0 39 3 70 7 70 4 0 3 14
-2 30 -5 19 -5 30 1 30 6 0 5 8 -1 20 -6 12 -7 20 -1 20 5 0 7 8 5 18 -10 43
-10 162 0 162 6 0 5 4 -2 9 -8 4 -14 12 -14 16 0 4 6 12 14 16 7 5 9 9 3 9 -6
0 -10 112 -10 315 0 173 4 315 8 315 5 0 5 5 1 11 -8 14 -11 309 -3 309 3 0 5
16 4 35 -1 19 2 40 7 47 4 7 8 9 8 3 0 -5 5 -3 10 5 7 11 10 11 10 2 0 -17 33
0 74 39 21 20 39 27 58 25 16 -2 29 2 32 11 3 8 10 11 16 8 5 -3 10 1 10 10 0
9 5 13 10 10 6 -3 10 -1 10 4 0 22 2 26 14 41 15 17 30 51 28 62 -1 4 6 4 15
1 11 -4 14 -3 9 5 -4 7 -1 12 7 12 18 0 39 49 35 81 -4 26 -32 72 -39 64 -3
-2 -5 5 -6 15 -1 11 3 20 9 20 6 0 9 3 6 6 -4 3 0 17 7 31 8 15 11 31 7 37 -3
6 -7 16 -7 21 -2 21 -17 45 -26 39 -5 -3 -9 2 -9 10 0 9 -7 16 -16 16 -8 0
-12 5 -9 10 3 6 2 10 -2 10 -5 0 -10 11 -11 25 -1 14 -3 34 -4 45 -1 11 -10
23 -20 26 -10 3 -18 10 -18 16 0 6 -9 8 -20 5 -11 -3 -23 -1 -26 4 -3 5 -10 7
-15 4 -10 -7 -39 18 -39 34 0 6 -4 11 -10 11 -5 0 -10 8 -10 17 0 9 -3 14 -6
10 -4 -3 -12 0 -20 7 -12 13 -42 14 -114 4 -17 -2 -24 1 -22 11 2 9 -4 12 -18
8 -12 -3 -20 0 -20 7 0 12 -19 15 -52 8z m-2928 -2026 c0 -2 -7 -9 -15 -16
-13 -11 -14 -10 -9 4 5 14 24 23 24 12z"/>
<path d="M2910 8218 c0 -5 -4 -7 -9 -4 -11 7 -23 -22 -14 -36 3 -7 1 -8 -5 -4
-11 7 -17 -11 -13 -41 1 -6 -3 -14 -7 -17 -5 -3 -8 -19 -6 -36 2 -19 -1 -30
-9 -30 -8 0 -7 -4 3 -10 8 -5 10 -10 5 -10 -6 0 -12 -14 -13 -32 -2 -17 -8
-38 -14 -45 -6 -7 -7 -13 -3 -13 5 0 0 -10 -11 -22 -10 -12 -13 -18 -6 -14 24
14 12 -5 -27 -42 -52 -50 -81 -73 -81 -65 0 4 -7 -2 -16 -13 -8 -10 -13 -14
-10 -7 4 7 -1 9 -14 6 -11 -3 -20 -10 -20 -15 0 -5 -4 -6 -10 -3 -5 3 -10 1
-10 -6 0 -9 -3 -9 -14 0 -12 10 -17 8 -26 -9 -6 -11 -14 -19 -18 -17 -10 5
-42 -30 -34 -38 4 -4 7 -12 7 -18 0 -7 8 -11 18 -11 9 1 15 -1 13 -5 -3 -4 8
-12 25 -18 21 -8 27 -8 22 0 -4 6 7 1 24 -11 23 -16 33 -18 41 -10 7 7 13 9
13 5 1 -4 3 -11 4 -17 1 -5 3 -13 4 -16 0 -4 9 0 18 7 14 12 16 12 8 0 -6 -11
-4 -13 8 -8 11 4 14 2 10 -9 -5 -13 8 -19 30 -15 5 1 5 -3 2 -10 -4 -6 2 -19
14 -30 12 -11 21 -26 21 -34 0 -8 4 -15 8 -15 4 0 8 -10 9 -22 1 -11 7 -25 14
-29 6 -4 9 -16 6 -28 -3 -12 -1 -19 4 -15 5 3 9 -3 9 -13 1 -42 13 -99 24
-112 9 -12 8 -13 -2 -7 -11 7 -11 4 -1 -12 7 -12 17 -18 21 -16 4 3 8 0 8 -6
0 -6 8 -10 18 -8 18 3 42 22 42 33 0 4 7 14 16 22 13 13 13 17 2 24 -10 7 -10
9 0 9 10 0 10 5 1 21 -9 17 -8 20 2 14 9 -6 11 -3 6 8 -3 10 -2 17 4 17 6 0 7
5 4 10 -3 6 -2 10 4 10 5 0 8 8 6 18 -1 9 2 22 7 29 5 7 7 17 3 23 -3 5 -1 10
5 10 6 0 8 5 5 10 -3 6 -2 10 2 10 10 0 49 62 45 72 -1 4 6 4 15 1 11 -4 14
-3 9 5 -4 7 -1 12 9 12 9 0 13 4 10 10 -4 6 1 7 11 3 12 -4 15 -3 10 5 -4 7
-2 12 5 12 6 0 18 8 26 18 14 16 14 16 9 -3 -6 -18 -4 -18 12 3 14 18 20 20
31 10 12 -11 13 -10 8 4 -6 17 8 19 31 4 8 -4 11 -3 10 4 -2 7 6 14 16 16 20
3 36 21 36 42 0 8 5 10 13 6 6 -3 0 5 -15 20 -15 14 -32 26 -38 26 -6 0 -9 4
-6 8 3 5 -1 9 -9 9 -8 0 -15 -4 -15 -8 0 -5 -12 3 -26 16 -15 14 -32 25 -38
25 -6 0 -4 -5 4 -10 9 -6 10 -10 3 -10 -6 0 -18 6 -25 13 -7 6 -22 19 -32 27
-18 13 -19 13 -11 0 4 -8 -5 0 -22 17 -16 18 -33 30 -36 26 -4 -3 -7 1 -7 10
0 10 -5 17 -11 17 -5 0 -7 5 -4 10 3 6 -2 10 -12 10 -15 0 -16 2 -3 10 12 7
12 10 1 10 -8 0 -11 6 -7 16 3 9 2 12 -5 9 -6 -4 -9 -1 -8 6 2 15 -6 42 -22
72 -6 11 -6 17 2 17 8 0 8 5 -1 15 -7 8 -9 15 -5 15 4 0 2 6 -4 14 -8 10 -9
16 -2 21 7 4 5 15 -7 33 -10 16 -12 23 -4 18 10 -6 9 1 -3 23 -9 18 -20 29
-25 26 -6 -4 -10 -2 -10 3 0 5 -7 9 -15 9 -8 0 -15 -4 -15 -9z m55 -247 c-3
-5 1 -16 9 -24 11 -11 12 -17 3 -27 -9 -10 -9 -11 1 -6 7 4 12 1 12 -7 0 -8 7
-20 15 -27 8 -7 12 -16 9 -21 -3 -5 0 -9 6 -9 6 0 8 -4 5 -10 -3 -5 2 -10 11
-10 10 0 15 -3 11 -6 -3 -3 6 -17 20 -30 23 -21 23 -29 1 -25 -5 0 -7 -2 -7
-6 4 -23 -3 -25 -17 -5 -8 12 -20 20 -25 17 -5 -4 -9 0 -9 7 0 8 -9 21 -20 31
-12 10 -18 22 -15 27 3 6 2 10 -3 10 -6 0 -13 7 -16 16 -4 10 -2 13 6 8 6 -4
4 3 -5 16 -13 19 -14 27 -4 39 9 12 9 13 0 7 -17 -9 -17 16 -1 32 14 14 21 16
13 3z"/>
<path d="M7611 7903 c-1 -7 -8 -13 -17 -13 -8 0 -12 -4 -9 -10 3 -5 0 -10 -8
-10 -15 0 -16 -5 -20 -67 -1 -24 -6 -43 -12 -43 -5 0 -3 -5 5 -10 10 -6 11
-10 3 -10 -7 0 -13 -5 -13 -11 0 -5 5 -7 11 -3 8 4 8 0 0 -15 -7 -12 -9 -26
-6 -31 4 -6 0 -13 -8 -16 -9 -3 -12 -14 -10 -28 3 -13 0 -27 -6 -30 -5 -4 -8
-13 -4 -21 3 -8 0 -15 -5 -15 -6 0 -9 -9 -7 -20 2 -11 0 -18 -6 -15 -8 6 -13
-8 -10 -27 0 -5 -3 -8 -9 -8 -6 0 -10 -7 -10 -15 0 -8 -9 -19 -20 -25 -11 -6
-18 -15 -15 -20 3 -5 -4 -11 -15 -15 -11 -4 -18 -10 -15 -14 2 -5 -7 -13 -20
-19 -14 -7 -25 -16 -25 -22 0 -6 -4 -8 -10 -5 -5 3 -10 1 -10 -5 0 -6 -4 -8
-10 -5 -5 3 -10 1 -10 -5 0 -7 -6 -10 -14 -7 -8 3 -17 -1 -20 -9 -3 -9 -10
-13 -15 -9 -5 3 -12 1 -16 -5 -4 -6 -11 -8 -16 -5 -5 4 -9 1 -9 -4 0 -6 -3
-10 -7 -10 -22 4 -33 -2 -27 -13 6 -10 5 -10 -7 -1 -12 10 -20 7 -40 -16 -13
-15 -23 -33 -23 -39 1 -7 2 -19 3 -27 0 -9 19 -20 46 -27 25 -7 45 -16 45 -21
0 -4 10 -7 23 -5 14 2 21 -2 19 -10 -1 -8 2 -10 8 -7 14 9 62 -3 56 -13 -2 -4
4 -8 14 -9 11 -1 26 -8 35 -15 57 -49 83 -77 78 -82 -4 -3 -1 -6 5 -6 7 0 12
-6 12 -14 0 -8 7 -17 16 -20 8 -3 12 -10 9 -16 -3 -5 -1 -10 4 -10 6 0 11 -9
11 -19 0 -11 5 -23 10 -26 6 -3 10 -19 10 -35 0 -16 4 -32 10 -35 5 -3 9 -16
8 -28 -1 -32 5 -50 24 -68 10 -9 16 -19 13 -23 -3 -3 0 -2 7 4 8 6 16 6 25 -1
8 -7 13 -8 13 -1 0 5 12 13 26 16 15 4 24 10 20 13 -3 3 -1 12 5 19 6 8 9 21
5 29 -3 9 -2 13 4 10 5 -3 8 7 5 24 -2 20 2 31 12 36 12 4 13 9 6 16 -8 8 -5
21 10 47 12 20 22 42 23 49 1 7 8 19 16 27 7 8 26 30 42 50 16 19 32 33 36 31
5 -3 11 2 14 11 4 9 13 14 22 10 8 -3 12 -2 9 4 -6 9 8 14 28 11 4 0 7 4 7 10
0 5 4 8 9 4 5 -3 16 2 25 10 10 10 17 12 21 4 5 -6 11 -4 19 7 9 11 21 15 35
11 13 -3 19 -1 14 6 -4 7 0 8 13 3 10 -4 15 -4 12 0 -4 3 4 17 18 31 13 13 24
26 24 28 0 12 -49 55 -63 55 -8 0 -17 4 -19 10 -1 5 -15 11 -30 12 -15 1 -26
5 -26 8 2 18 -4 23 -12 10 -8 -13 -10 -12 -10 3 0 10 -4 15 -10 12 -5 -3 -10
-1 -10 6 0 7 -3 9 -6 6 -4 -3 -23 7 -42 23 -19 16 -39 27 -43 24 -4 -2 -13 9
-20 25 -7 16 -16 28 -20 25 -4 -2 -10 5 -14 16 -3 11 -11 20 -16 20 -6 0 -7 5
-4 10 3 6 2 10 -2 10 -10 0 -33 58 -33 83 0 9 -5 17 -11 17 -6 0 -9 9 -6 20 3
11 1 20 -5 20 -5 0 -6 5 -3 10 3 6 2 10 -3 10 -6 0 -8 10 -4 22 4 16 2 19 -9
13 -12 -8 -12 -6 0 8 7 9 9 17 4 17 -6 0 -8 12 -5 26 4 20 2 25 -8 19 -9 -6
-10 -3 -1 12 6 11 7 23 4 27 -4 4 -8 13 -9 20 -5 36 -17 56 -34 56 -10 0 -21
6 -23 13 -4 10 -6 10 -6 0z m34 -282 c-3 -6 0 -13 7 -18 12 -7 17 -22 20 -60
1 -7 6 -13 12 -13 6 0 4 -5 -4 -10 -8 -5 -10 -10 -4 -10 10 0 22 -26 22 -47 0
-3 4 -9 9 -12 4 -3 17 -23 28 -43 10 -20 23 -34 28 -31 6 3 7 1 4 -4 -4 -6 4
-19 18 -29 13 -10 21 -22 18 -28 -4 -5 0 -7 9 -3 10 3 18 -1 21 -13 3 -11 -1
-21 -10 -24 -8 -3 -11 -1 -8 4 3 6 1 10 -5 10 -13 0 -55 31 -58 42 -1 5 -11
18 -22 31 -28 32 -82 120 -69 112 6 -4 4 4 -5 17 -9 14 -13 28 -9 31 3 4 0 7
-8 7 -11 0 -11 2 1 10 13 9 13 10 0 10 -13 0 -13 1 0 10 9 6 10 10 3 10 -7 0
-10 11 -8 28 5 34 4 32 11 32 3 0 3 -4 -1 -9z"/>
<path d="M2367 7079 c-9 -6 -22 -19 -28 -31 -8 -16 -8 -19 1 -13 7 4 4 -4 -5
-19 -10 -14 -21 -26 -26 -26 -5 0 -8 -5 -6 -12 1 -7 -2 -12 -8 -13 -5 0 -15
-4 -22 -8 -6 -4 -14 -1 -16 5 -3 8 -6 7 -6 -4 -1 -9 -8 -21 -17 -26 -13 -7
-12 -11 11 -26 14 -9 23 -21 20 -26 -4 -6 1 -10 10 -10 9 0 13 -4 10 -10 -3
-6 1 -7 9 -4 10 4 16 1 16 -9 0 -8 7 -20 15 -27 9 -7 13 -15 11 -18 -3 -2 1
-17 9 -32 8 -15 12 -30 10 -34 -3 -3 -2 -4 2 -1 3 3 12 0 20 -6 10 -9 13 -8
13 5 0 10 5 14 10 11 6 -3 10 1 10 10 0 9 4 14 9 10 6 -3 8 4 6 15 -2 11 1 20
7 20 5 0 8 7 4 15 -3 10 1 15 11 15 9 0 13 3 10 7 -10 10 31 35 45 27 6 -4 8
-3 4 4 -3 5 6 20 21 31 16 11 22 21 15 21 -7 0 -11 4 -7 9 3 5 0 13 -6 17 -8
4 -9 3 -5 -4 4 -7 2 -12 -3 -12 -6 0 -11 5 -11 10 0 6 -6 10 -13 10 -7 0 -18
9 -25 20 -7 11 -19 20 -28 20 -14 0 -15 2 -3 17 8 9 9 14 3 10 -6 -3 -16 8
-24 28 -15 39 -29 47 -53 34z"/>
<path d="M1878 6613 c-8 -10 -16 -25 -17 -33 -2 -36 -14 -79 -20 -76 -3 2 -6
-8 -7 -22 -2 -54 -8 -80 -18 -75 -5 4 -7 -1 -3 -10 4 -11 2 -14 -9 -10 -8 3
-14 2 -13 -3 3 -18 -1 -37 -7 -31 -3 3 -17 -5 -31 -19 -13 -13 -33 -24 -43
-24 -11 0 -20 -4 -20 -9 0 -5 -13 -11 -29 -14 -16 -3 -31 -13 -34 -21 -8 -21
30 -56 60 -56 13 0 23 -5 23 -11 0 -6 8 -9 19 -6 11 2 24 -3 32 -14 7 -10 16
-16 21 -13 4 3 8 -2 8 -10 0 -9 5 -16 10 -16 6 0 10 -7 10 -15 0 -8 5 -15 11
-15 6 0 9 -9 6 -19 -3 -11 1 -22 9 -25 8 -3 11 -12 7 -22 -4 -11 -2 -15 4 -11
7 5 9 0 6 -14 -4 -12 0 -25 8 -30 10 -6 10 -9 2 -9 -10 0 -10 -6 -1 -25 6 -14
14 -25 17 -26 3 0 14 -2 24 -4 11 -2 16 -1 14 2 -3 3 2 14 12 24 10 11 17 32
16 49 -1 17 3 30 8 30 5 0 7 9 4 20 -3 11 -1 18 4 14 5 -3 9 2 9 11 0 8 9 23
19 32 11 9 18 20 15 25 -3 4 3 11 13 15 10 4 23 13 29 21 6 8 16 12 23 8 6 -4
10 -4 9 1 -2 4 0 8 3 8 4 0 16 8 26 17 15 14 22 15 31 6 9 -9 12 -9 12 -1 0 7
9 15 20 18 11 4 18 10 15 15 -3 5 0 10 7 12 15 5 -13 38 -31 38 -6 0 -11 4
-11 9 0 5 -8 7 -19 4 -10 -2 -25 3 -35 12 -10 11 -16 12 -16 4 0 -7 -9 -2 -20
11 -11 13 -20 19 -20 14 -1 -5 -9 1 -19 13 -10 12 -20 20 -23 18 -2 -2 -5 5
-5 17 -1 12 -6 24 -10 27 -8 6 -13 27 -16 64 -1 9 -5 17 -9 17 -4 0 -3 11 2
25 6 15 6 26 0 30 -6 4 -10 17 -10 31 0 21 -9 29 -32 25 -5 0 -8 4 -8 9 0 15
-15 12 -32 -7z"/>
<path d="M7840 6415 c-7 -8 -8 -20 -4 -26 4 -7 3 -9 -4 -5 -6 3 -13 -3 -17
-14 -3 -11 -14 -20 -23 -20 -12 0 -17 -8 -17 -26 0 -19 4 -24 18 -20 9 2 15 1
12 -4 -2 -4 4 -17 15 -30 10 -12 21 -27 23 -33 6 -19 35 1 52 37 10 20 20 34
24 32 4 -3 12 4 19 14 10 17 9 20 -13 26 -15 4 -28 16 -31 30 -4 13 -11 21
-17 17 -6 -4 -8 0 -4 10 8 20 -18 30 -33 12z"/>
</g>
</svg>
